# xmcd
#
# Track frame offsets: 
#        150
#        17408
#        34558
#        50570
#        66242
#        85062
#        104034
#        121316
#        138425
#        156963
#        173814
#        192462
#
# Disc length: 2757 seconds
#
# Revision: 2
# Processed by: cddbd v1.5.2PL0 Copyright (c) Steve Scherf et al.
# Submitted via: ExactAudioCopyFreeDBPlugin 1.0
#
DISCID=a10ac30c
DTITLE=Exit - 3.0
DYEAR=2017
DGENRE=Christian Rock
TTITLE0=Damaskoksen tie
TTITLE1=Parempi niin
TTITLE2=Uutta viiniä
TTITLE3=Mihin tartut?
TTITLE4=Kristallivirta
TTITLE5=Itsekseen
TTITLE6=Minut löydettiin
TTITLE7=Hetket
TTITLE8=Se, joka olin ennen
TTITLE9=Pyhän äärelle
TTITLE10=Levottoman taivaan alla
TTITLE11=Yksin uskosta
EXTD=
EXTT0=
EXTT1=
EXTT2=
EXTT3=
EXTT4=
EXTT5=
EXTT6=
EXTT7=
EXTT8=
EXTT9=
EXTT10=
EXTT11=
PLAYORDER=
